<svg width="49" height="14" viewBox="0 0 49 14" fill="none" xmlns="http://www.w3.org/2000/svg">
<path d="M4.87798 13.18C3.88188 13.18 3.0358 13 2.33973 12.64C1.64367 12.2799 1.01961 11.7519 0.467556 11.0558L1.87169 9.65167C2.21972 10.1557 2.63376 10.5518 3.11381 10.8398C3.59385 11.1158 4.20591 11.2538 4.94998 11.2538C5.64605 11.2538 6.1981 11.1098 6.60614 10.8218C7.02618 10.5337 7.2362 10.1377 7.2362 9.63366C7.2362 9.21362 7.12819 8.87159 6.91217 8.60757C6.69615 8.34354 6.40812 8.12752 6.04809 7.95951C5.70005 7.77949 5.31002 7.62347 4.87798 7.49146C4.45794 7.34745 4.0319 7.19143 3.59985 7.02342C3.17981 6.8434 2.78978 6.62138 2.42974 6.35735C2.08171 6.09333 1.79968 5.75129 1.58366 5.33125C1.36764 4.91121 1.25963 4.37716 1.25963 3.7291C1.25963 2.98503 1.43965 2.35497 1.79968 1.83892C2.17172 1.31087 2.66977 0.908834 3.29383 0.632807C3.91788 0.356781 4.61395 0.218768 5.38202 0.218768C6.2101 0.218768 6.94817 0.380783 7.59623 0.704814C8.2563 1.02885 8.79035 1.44288 9.19839 1.94693L7.79425 3.35107C7.43422 2.94303 7.05618 2.643 6.66015 2.45098C6.27611 2.24696 5.83207 2.14495 5.32802 2.14495C4.70396 2.14495 4.21191 2.27096 3.85188 2.52299C3.50385 2.77501 3.32983 3.12904 3.32983 3.58509C3.32983 3.96913 3.43784 4.28115 3.65386 4.52118C3.86988 4.7492 4.15191 4.94722 4.49994 5.11523C4.85997 5.27125 5.25001 5.42126 5.67005 5.56528C6.10209 5.70929 6.52813 5.87131 6.94817 6.05132C7.38021 6.23134 7.77025 6.46536 8.11828 6.75339C8.47832 7.02942 8.76635 7.38945 8.98237 7.83349C9.19839 8.27754 9.3064 8.83559 9.3064 9.50765C9.3064 10.6358 8.90436 11.5298 8.10028 12.1899C7.30821 12.85 6.23411 13.18 4.87798 13.18ZM15.494 13V0.75882H17.5642V13H15.494ZM11.3896 2.28897V0.398785H21.6686V2.28897H11.3896ZM22.295 13L27.4795 0.398785H28.9196L34.0681 13H31.8359L27.8035 2.79301H28.5596L24.4912 13H22.295ZM24.8512 10.5698V8.76958H31.5298V10.5698H24.8512ZM42.163 13.18C41.299 13.18 40.4829 13.012 39.7148 12.676C38.9467 12.3399 38.2747 11.8779 37.6986 11.2898C37.1226 10.6898 36.6665 9.9997 36.3305 9.21962C36.0065 8.42755 35.8444 7.58147 35.8444 6.68138C35.8444 5.7813 36.0065 4.94122 36.3305 4.16114C36.6665 3.38107 37.1226 2.697 37.6986 2.10895C38.2867 1.50889 38.9707 1.04685 39.7508 0.722816C40.5429 0.386784 41.395 0.218768 42.3071 0.218768C43.3031 0.218768 44.2272 0.410786 45.0793 0.794823C45.9314 1.17886 46.6455 1.72491 47.2215 2.43298L45.8174 3.83711C45.4454 3.30906 44.9473 2.90702 44.3232 2.631C43.6992 2.34297 43.0271 2.19896 42.3071 2.19896C41.443 2.19896 40.6809 2.39097 40.0208 2.77501C39.3728 3.14705 38.8687 3.6691 38.5087 4.34116C38.1487 5.01322 37.9686 5.7933 37.9686 6.68138C37.9686 7.56947 38.1487 8.35554 38.5087 9.03961C38.8807 9.71167 39.3788 10.2397 40.0028 10.6238C40.6269 11.0078 41.335 11.1998 42.127 11.1998C42.9671 11.1998 43.6872 11.0498 44.2872 10.7498C44.8993 10.4377 45.3673 9.9817 45.6914 9.38164C46.0154 8.76958 46.1774 8.01951 46.1774 7.13143L47.4735 8.06752H42.091V6.17734H48.3196V6.46536C48.3196 7.96551 48.0496 9.21362 47.5095 10.2097C46.9815 11.2058 46.2554 11.9499 45.3313 12.4419C44.4073 12.934 43.3512 13.18 42.163 13.18Z" fill="#C0C0C0"/>
</svg>
