<svg width="48" height="72" viewBox="0 0 48 72" fill="none" xmlns="http://www.w3.org/2000/svg">
<mask id="path-1-inside-1_1_2416" fill="white">
<path d="M0 -0.000244141H48V71.9998H0V-0.000244141Z"/>
</mask>
<path d="M0 71.9998H-0.375036V72.3748H0V71.9998ZM-0.375036 -0.000244141V1.49976H0.375036V-0.000244141H-0.375036ZM-0.375036 4.49976V7.49976H0.375036V4.49976H-0.375036ZM-0.375036 10.4998V13.4998H0.375036V10.4998H-0.375036ZM-0.375036 16.4998V19.4998H0.375036V16.4998H-0.375036ZM-0.375036 22.4998V25.4998H0.375036V22.4998H-0.375036ZM-0.375036 28.4998V31.4998H0.375036V28.4998H-0.375036ZM-0.375036 34.4998V37.4998H0.375036V34.4998H-0.375036ZM-0.375036 40.4998V43.4998H0.375036V40.4998H-0.375036ZM-0.375036 46.4998V49.4998H0.375036V46.4998H-0.375036ZM-0.375036 52.4998V55.4998H0.375036V52.4998H-0.375036ZM-0.375036 58.4998V61.4998H0.375036V58.4998H-0.375036ZM-0.375036 64.4998V67.4998H0.375036V64.4998H-0.375036ZM-0.375036 70.4998V71.9998H0.375036V70.4998H-0.375036ZM0 72.3748H1.5V71.6247H0V72.3748ZM4.5 72.3748H7.5V71.6247H4.5V72.3748ZM10.5 72.3748H13.5V71.6247H10.5V72.3748ZM16.5 72.3748H19.5V71.6247H16.5V72.3748ZM22.5 72.3748H25.5V71.6247H22.5V72.3748ZM28.5 72.3748H31.5V71.6247H28.5V72.3748ZM34.5 72.3748H37.5V71.6247H34.5V72.3748ZM40.5 72.3748H43.5V71.6247H40.5V72.3748ZM46.5 72.3748H48V71.6247H46.5V72.3748ZM0 71.9998H-0.750071V72.7498H0V71.9998ZM-0.750071 -0.000244141V1.49976H0.750071V-0.000244141H-0.750071ZM-0.750071 4.49976V7.49976H0.750071V4.49976H-0.750071ZM-0.750071 10.4998V13.4998H0.750071V10.4998H-0.750071ZM-0.750071 16.4998V19.4998H0.750071V16.4998H-0.750071ZM-0.750071 22.4998V25.4998H0.750071V22.4998H-0.750071ZM-0.750071 28.4998V31.4998H0.750071V28.4998H-0.750071ZM-0.750071 34.4998V37.4998H0.750071V34.4998H-0.750071ZM-0.750071 40.4998V43.4998H0.750071V40.4998H-0.750071ZM-0.750071 46.4998V49.4998H0.750071V46.4998H-0.750071ZM-0.750071 52.4998V55.4998H0.750071V52.4998H-0.750071ZM-0.750071 58.4998V61.4998H0.750071V58.4998H-0.750071ZM-0.750071 64.4998V67.4998H0.750071V64.4998H-0.750071ZM-0.750071 70.4998V71.9998H0.750071V70.4998H-0.750071ZM0 72.7498H1.5V71.2497H0V72.7498ZM4.5 72.7498H7.5V71.2497H4.5V72.7498ZM10.5 72.7498H13.5V71.2497H10.5V72.7498ZM16.5 72.7498H19.5V71.2497H16.5V72.7498ZM22.5 72.7498H25.5V71.2497H22.5V72.7498ZM28.5 72.7498H31.5V71.2497H28.5V72.7498ZM34.5 72.7498H37.5V71.2497H34.5V72.7498ZM40.5 72.7498H43.5V71.2497H40.5V72.7498ZM46.5 72.7498H48V71.2497H46.5V72.7498Z" fill="#00AAFF" fill-opacity="0.2" mask="url(#path-1-inside-1_1_2416)"/>
</svg>
